<?xml version="1.0" encoding="utf-8"?>
<!-- Generator: Adobe Illustrator 23.0.1, SVG Export Plug-In . SVG Version: 6.00 Build 0)  -->
<svg version="1.1" id="Layer_1" xmlns="http://www.w3.org/2000/svg" xmlns:xlink="http://www.w3.org/1999/xlink" x="0px" y="0px"
	 viewBox="0 0 185 62" style="enable-background:new 0 0 185 62;" xml:space="preserve">
<style type="text/css">
	.st0{fill:#EDEEEF;}
	.st1{fill:#C8C8C8;}
	.st2{fill:#1A5784;}
	.st3{fill:#2CBBE3;}
	.st4{fill:#757575;}
	.st5{enable-background:new    ;}
</style>
<g>
	<path class="st0" d="M15.9,23.3c0,0,0.4-0.6,1-0.9c0.3-0.2,12.9-6.8,12.9-6.8c0.6-0.3,1.5-0.3,2,0l13.3,6.8c0.6,0.3,0.6,0.8,0,1.1
		c0,0-12.1,6.1-12.6,6.4c-1.2,0.5-1.4,1.1-1.4,1.1L15.9,23.3z"/>
	<path class="st1" d="M15.9,23.3c0,0-0.4,0.7-0.4,1.3v13c0,0.6,0.5,1.3,1,1.6l12.9,6.7c0.6,0.3,1.5,0.3,1.5,0.3V32.6
		c0-1,0.2-1.6,0.2-1.6L15.9,23.3z"/>
	<path class="st2" d="M12.4,21.6c0,0-0.4,0.6-0.4,1.5c0,0.7,0,15.9,0,15.9c0,0.8,0.6,1.8,1.4,2.2l15.9,8.1c0.8,0.4,2.1,0.4,2.8,0
		l21.5-11.1c0.8-0.4,2.1-0.4,2.8,0l8.9,4.5c0.7,0.4,0.6,1.2,0,1.5L32.3,61c-0.9,0.4-1.8,0.6-2.8,0L1.6,46.7
		c-0.8-0.4-1.4-1.1-1.4-1.9c0,0,0-27.3,0-27.6c0-0.8,0.2-1.3,0.4-1.5C0.6,15.7,12.4,21.6,12.4,21.6z"/>
	<path class="st3" d="M0.6,15.7c0.2-0.3,0.5-0.6,1.1-0.9c1-0.5,27.7-14,27.7-14c1-0.5,2-0.4,2.8,0l27.5,14c0.9,0.5,1.4,1.1,1.4,2.2
		v12.6c0,0.8-0.4,1.8-1.4,2.2L32.2,45.9c-0.6,0.3-1.3,0.3-1.3,0.3V34.8l17-8.9c1.1-0.5,1.4-1.3,1.4-2.2v-0.6c0-1.2-0.6-1.7-1.4-2.2
		l-16-8.1c-0.8-0.4-1.7-0.4-2.5,0c0,0-11.4,5.7-15.8,8c-1,0.5-1.2,0.8-1.2,0.8L0.6,15.7z"/>
</g>
<rect x="75.9" y="42.8" class="st4" width="108.6" height="0.3"/>
<g class="st5">
	<path class="st2" d="M76.8,53.3h-0.7c-0.1,0-0.2,0-0.2,0c0,0,0-0.1,0-0.2v-0.7c0-0.2,0.1-0.2,0.2-0.2h0.7c0.1,0,0.1,0,0.1-0.1v-1.2
		c0-0.2,0.1-0.2,0.2-0.2h0.9c0.2,0,0.2,0.1,0.2,0.2v1.2c0,0.1,0,0.1,0.1,0.1h1.3c0.2,0,0.2,0.1,0.2,0.2v0.7c0,0.1-0.1,0.2-0.2,0.2
		h-1.3c-0.1,0-0.1,0-0.1,0.1V57c0,0.7,0.3,1,1,1h0.5c0.2,0,0.2,0.1,0.2,0.2v0.7c0,0.1-0.1,0.2-0.2,0.2h-0.7c-0.7,0-1.2-0.2-1.6-0.5
		S77,57.7,77,57v-3.6C77,53.4,76.9,53.3,76.8,53.3z"/>
	<path class="st2" d="M82.5,59.1h-0.9c-0.2,0-0.2-0.1-0.2-0.2v-9.1c0-0.2,0.1-0.2,0.2-0.2h0.9c0.2,0,0.2,0.1,0.2,0.2v3.1h0.1
		c0.2-0.5,0.7-0.7,1.4-0.7h0.6c0.7,0,1.2,0.2,1.5,0.5c0.4,0.4,0.5,0.9,0.5,1.6v4.6c0,0.2-0.1,0.2-0.2,0.2h-0.9
		c-0.2,0-0.2-0.1-0.2-0.2v-4.5c0-0.7-0.3-1-1-1h-0.6c-0.7,0-1.1,0.4-1.1,1.2v4.4C82.7,59.1,82.7,59.1,82.5,59.1z"/>
	<path class="st2" d="M93.4,59.1h-2.9c-0.7,0-1.2-0.2-1.6-0.6s-0.6-0.9-0.6-1.6v-2.7c0-0.7,0.2-1.2,0.6-1.6s0.9-0.6,1.6-0.6h1.1
		c0.7,0,1.2,0.2,1.6,0.6c0.4,0.4,0.6,0.9,0.6,1.6V56c0,0.2-0.1,0.2-0.2,0.2h-3.6c-0.1,0-0.1,0-0.1,0.1V57c0,0.7,0.3,1,1,1h2.7
		c0.2,0,0.2,0.1,0.2,0.2v0.7C93.6,59.1,93.5,59.1,93.4,59.1z M89.8,55.3h2.4c0.1,0,0.1,0,0.1-0.1v-0.9c0-0.3-0.1-0.6-0.2-0.8
		c-0.2-0.2-0.4-0.2-0.7-0.2h-0.7c-0.3,0-0.6,0.1-0.7,0.2c-0.2,0.2-0.2,0.4-0.2,0.8v0.9C89.6,55.3,89.7,55.3,89.8,55.3z"/>
	<path class="st2" d="M100.9,58.8h-0.6c-0.7,0-1.2-0.2-1.5-0.6s-0.5-0.9-0.5-1.6v-2.4c0-0.7,0.2-1.2,0.6-1.6s0.9-0.6,1.5-0.6h3
		c0.2,0,0.2,0.1,0.2,0.2v6.7c0,0.7-0.2,1.2-0.6,1.5c-0.4,0.4-0.9,0.6-1.6,0.6H99c-0.2,0-0.2-0.1-0.2-0.2v-0.7c0-0.2,0.1-0.2,0.2-0.2
		h2.4c0.7,0,1-0.3,1-1v-1h-0.1C102.1,58.5,101.6,58.8,100.9,58.8z M102.3,56.5v-3c0-0.1,0-0.1-0.1-0.1h-1.6c-0.6,0-1,0.3-1,1v2.3
		c0,0.7,0.3,1,1,1h0.7C102,57.6,102.3,57.2,102.3,56.5z"/>
	<path class="st2" d="M106.5,59.1h-0.9c-0.2,0-0.2-0.1-0.2-0.2v-6.5c0-0.2,0.1-0.2,0.2-0.2h0.9c0.2,0,0.2,0.1,0.2,0.2v0.5h0.1
		c0.1-0.2,0.3-0.4,0.5-0.5c0.3-0.1,0.5-0.2,0.9-0.2h0.5c0.2,0,0.2,0.1,0.2,0.2v0.7c0,0.2-0.1,0.2-0.2,0.2h-0.8
		c-0.8,0-1.1,0.4-1.1,1.2v4.3C106.7,59.1,106.6,59.1,106.5,59.1z"/>
	<path class="st2" d="M113.1,59.1h-1.2c-0.7,0-1.2-0.2-1.6-0.6s-0.6-0.9-0.6-1.6v-2.7c0-0.7,0.2-1.2,0.6-1.6s0.9-0.6,1.6-0.6h1.2
		c0.7,0,1.2,0.2,1.6,0.6c0.4,0.4,0.6,0.9,0.6,1.6V57c0,0.7-0.2,1.2-0.6,1.6C114.3,58.9,113.8,59.1,113.1,59.1z M112.1,58h0.8
		c0.7,0,1-0.3,1-1v-2.6c0-0.7-0.3-1-1-1h-0.8c-0.3,0-0.6,0.1-0.7,0.2c-0.2,0.2-0.2,0.4-0.2,0.8V57c0,0.3,0.1,0.6,0.2,0.8
		C111.5,57.9,111.8,58,112.1,58z"/>
	<path class="st2" d="M119.2,59.1h-1.2c-0.1,0-0.2-0.1-0.3-0.2l-1.6-6.5c0-0.2,0-0.2,0.2-0.2h1c0.2,0,0.3,0.1,0.3,0.2l1,5.1h0.1
		l1.2-5.1c0-0.2,0.1-0.2,0.3-0.2h0.9c0.2,0,0.3,0.1,0.3,0.2l1.2,5.1h0.1l1-5.1c0-0.2,0.1-0.2,0.3-0.2h1c0.2,0,0.2,0.1,0.2,0.2
		l-1.6,6.5c0,0.2-0.1,0.2-0.3,0.2H122c-0.1,0-0.2-0.1-0.3-0.2l-1.1-5h-0.1l-1.1,5C119.5,59.1,119.4,59.1,119.2,59.1z"/>
	<path class="st2" d="M126.4,53.3h-0.7c-0.1,0-0.2,0-0.2,0c0,0,0-0.1,0-0.2v-0.7c0-0.2,0.1-0.2,0.2-0.2h0.7c0.1,0,0.1,0,0.1-0.1
		v-1.2c0-0.2,0.1-0.2,0.2-0.2h0.9c0.2,0,0.2,0.1,0.2,0.2v1.2c0,0.1,0,0.1,0.1,0.1h1.3c0.2,0,0.2,0.1,0.2,0.2v0.7
		c0,0.1-0.1,0.2-0.2,0.2H128c-0.1,0-0.1,0-0.1,0.1V57c0,0.7,0.3,1,1,1h0.5c0.2,0,0.2,0.1,0.2,0.2v0.7c0,0.1-0.1,0.2-0.2,0.2h-0.7
		c-0.7,0-1.2-0.2-1.6-0.5s-0.6-0.9-0.6-1.5v-3.6C126.5,53.4,126.5,53.3,126.4,53.3z"/>
	<path class="st2" d="M132,59.1h-0.9c-0.2,0-0.2-0.1-0.2-0.2v-9.1c0-0.2,0.1-0.2,0.2-0.2h0.9c0.2,0,0.2,0.1,0.2,0.2v3.1h0.1
		c0.2-0.5,0.7-0.7,1.4-0.7h0.6c0.7,0,1.2,0.2,1.5,0.5c0.4,0.4,0.5,0.9,0.5,1.6v4.6c0,0.2-0.1,0.2-0.2,0.2h-0.9
		c-0.2,0-0.2-0.1-0.2-0.2v-4.5c0-0.7-0.3-1-1-1h-0.6c-0.7,0-1.1,0.4-1.1,1.2v4.4C132.3,59.1,132.2,59.1,132,59.1z"/>
	<path class="st2" d="M145.4,58.2v0.7c0,0.1-0.1,0.2-0.2,0.2h-2c-0.7,0-1.2-0.2-1.6-0.6s-0.6-0.9-0.6-1.6v-2.7
		c0-0.7,0.2-1.2,0.6-1.6s0.9-0.6,1.6-0.6h2c0.2,0,0.2,0.1,0.2,0.2v0.7c0,0.1-0.1,0.2-0.2,0.2h-1.8c-0.7,0-1,0.3-1,1V57
		c0,0.7,0.3,1,1,1h1.8C145.4,58,145.4,58,145.4,58.2z"/>
	<path class="st2" d="M149.2,59.1h-0.5c-0.7,0-1.2-0.2-1.6-0.6s-0.6-0.9-0.6-1.6v-2.7c0-0.7,0.2-1.2,0.6-1.6s0.9-0.6,1.6-0.6h3
		c0.2,0,0.2,0.1,0.2,0.2v6.5c0,0.2-0.1,0.2-0.2,0.2h-0.9c-0.2,0-0.2-0.1-0.2-0.2v-0.5h-0.1C150.4,58.9,149.9,59.1,149.2,59.1z
		 M150.7,56.8v-3.3c0-0.1,0-0.1-0.1-0.1h-1.6c-0.7,0-1,0.3-1,1V57c0,0.7,0.3,1,1,1h0.7C150.3,58,150.7,57.6,150.7,56.8z"/>
	<path class="st2" d="M153.9,53.3h-0.7c-0.1,0-0.2,0-0.2,0c0,0,0-0.1,0-0.2v-0.7c0-0.2,0.1-0.2,0.2-0.2h0.7c0.1,0,0.1,0,0.1-0.1
		v-1.2c0-0.2,0.1-0.2,0.2-0.2h0.9c0.2,0,0.2,0.1,0.2,0.2v1.2c0,0.1,0,0.1,0.2,0.1h1.3c0.2,0,0.2,0.1,0.2,0.2v0.7
		c0,0.1-0.1,0.2-0.2,0.2h-1.3c-0.1,0-0.2,0-0.2,0.1V57c0,0.7,0.3,1,1,1h0.5c0.2,0,0.2,0.1,0.2,0.2v0.7c0,0.1-0.1,0.2-0.2,0.2h-0.7
		c-0.7,0-1.2-0.2-1.6-0.5S154,57.7,154,57v-3.6C154,53.4,154,53.3,153.9,53.3z"/>
	<path class="st2" d="M161,59.1h-0.5c-0.7,0-1.2-0.2-1.6-0.6s-0.6-0.9-0.6-1.6v-2.7c0-0.7,0.2-1.2,0.6-1.6s0.9-0.6,1.6-0.6h3
		c0.2,0,0.2,0.1,0.2,0.2v6.5c0,0.2-0.1,0.2-0.2,0.2h-0.9c-0.2,0-0.2-0.1-0.2-0.2v-0.5h-0.1C162.1,58.9,161.7,59.1,161,59.1z
		 M162.4,56.8v-3.3c0-0.1,0-0.1-0.1-0.1h-1.6c-0.7,0-1,0.3-1,1V57c0,0.7,0.3,1,1,1h0.7C162,58,162.4,57.6,162.4,56.8z"/>
	<path class="st2" d="M166.6,59.1h-0.9c-0.2,0-0.2-0.1-0.2-0.2v-9.1c0-0.2,0.1-0.2,0.2-0.2h0.9c0.2,0,0.2,0.1,0.2,0.2v9.1
		C166.8,59.1,166.7,59.1,166.6,59.1z"/>
	<path class="st2" d="M169.4,61.3h-0.7c-0.2,0-0.2-0.1-0.2-0.2v-0.7c0-0.2,0.1-0.2,0.2-0.2h0.3c0.6,0,0.9-0.1,1.1-0.3
		c0.2-0.2,0.4-0.6,0.5-1.1h-0.5c-0.1,0-0.2-0.1-0.3-0.2l-1.8-6.1c0-0.2,0-0.2,0.2-0.2h0.9c0.1,0,0.2,0.1,0.3,0.2l1.5,5.3h0.1
		l1.5-5.3c0-0.2,0.1-0.2,0.3-0.2h0.9c0.2,0,0.2,0.1,0.2,0.2l-1.9,6.5c-0.2,0.8-0.5,1.3-0.9,1.7S170.1,61.3,169.4,61.3z"/>
	<path class="st2" d="M177.4,59.1h-2.5c-0.2,0-0.2-0.1-0.2-0.2v-0.7c0-0.1,0.1-0.2,0.2-0.2h2.3c0.6,0,0.9-0.2,0.9-0.6v-0.2
		c0-0.4-0.2-0.6-0.6-0.8l-1.5-0.7c-0.5-0.2-0.8-0.5-1-0.7c-0.2-0.3-0.3-0.6-0.3-1c0-1.2,0.6-1.8,1.9-1.8h2.3c0.1,0,0.2,0.1,0.2,0.2
		v0.7c0,0.2-0.1,0.2-0.2,0.2h-2c-0.3,0-0.5,0-0.6,0.1c-0.1,0.1-0.2,0.2-0.2,0.4V54c0,0.3,0.2,0.5,0.7,0.8l1.5,0.8
		c0.5,0.2,0.8,0.5,1,0.7c0.2,0.3,0.3,0.7,0.3,1.1C179.5,58.5,178.8,59.1,177.4,59.1z"/>
	<path class="st2" d="M181.1,53.3h-0.7c-0.1,0-0.2,0-0.2,0c0,0,0-0.1,0-0.2v-0.7c0-0.2,0.1-0.2,0.2-0.2h0.7c0.1,0,0.1,0,0.1-0.1
		v-1.2c0-0.2,0.1-0.2,0.2-0.2h0.9c0.2,0,0.2,0.1,0.2,0.2v1.2c0,0.1,0,0.1,0.1,0.1h1.3c0.2,0,0.2,0.1,0.2,0.2v0.7
		c0,0.1-0.1,0.2-0.2,0.2h-1.3c-0.1,0-0.1,0-0.1,0.1V57c0,0.7,0.3,1,1,1h0.5c0.2,0,0.2,0.1,0.2,0.2v0.7c0,0.1-0.1,0.2-0.2,0.2h-0.7
		c-0.7,0-1.2-0.2-1.6-0.5s-0.6-0.9-0.6-1.5v-3.6C181.2,53.4,181.2,53.3,181.1,53.3z"/>
</g>
<g>
	<path class="st2" d="M75.9,15.9c0-3.6,0.6-6.1,1.9-7.5c1-1.1,2.5-1.7,4.5-1.7c2.9,0,4.7,1.2,5.4,3.7c0.4,1.4,0.6,3.3,0.6,5.7v5.4
		h-8.5v5.7c0,2.5,0.2,4,0.6,4.6c0.4,0.6,1,0.9,1.9,0.9s1.4-0.4,1.7-1.1c0.3-0.7,0.4-1.5,0.4-2.3s0-1.5,0-2.1v-2.3h3.8v1.2
		c0,3-0.2,5.2-0.6,6.4c-0.4,1.2-1.1,2.1-1.9,2.6c-0.9,0.5-1.9,0.8-3.2,0.8c-1.3,0-2.3-0.2-3.1-0.5c-0.8-0.3-1.4-0.8-1.8-1.3
		s-0.8-1.4-1.2-2.6c-0.3-1.2-0.5-3-0.5-5.6C75.9,25.9,75.9,15.9,75.9,15.9z M84.5,15.2c0-1.9-0.1-3.3-0.2-3.7s-0.5-1.6-1.8-1.6
		c-1.1,0-1.9,0.5-2.2,1.4s-0.5,2.3-0.5,4v3.5h4.6C84.4,18.8,84.5,17.1,84.5,15.2z"/>
	<path class="st2" d="M96.5,16.4c0-2.5,0.2-4.3,0.6-5.4s0.8-2,1.3-2.5c1-1.2,2.5-1.8,4.5-1.8s3.4,0.5,4.3,1.5s1.4,2.5,1.6,4.4
		c0.1,0.8,0.1,1.8,0.1,3v2H105v-2.5c0-1.8-0.1-2.9-0.2-3.5c-0.2-1.1-1.1-1.5-1.8-1.5c-1.2,0-2,0.6-2.3,1.9c-0.2,0.8-0.3,1.9-0.3,3.3
		v12.1c0,2,0.1,3.3,0.4,4.1c0.3,0.8,0.9,1.2,1.7,1.2s1.5-0.3,1.9-0.8c0.4-0.6,0.6-2,0.6-4.4v-2.8h3.8v1.8c0,3.9-0.5,6.4-1.5,7.7
		s-2.6,1.8-4.7,1.8c-3.3,0-5.3-1.8-5.8-5.3c-0.2-1.3-0.3-2.9-0.3-4.6C96.5,26.1,96.5,16.4,96.5,16.4z"/>
	<path class="st2" d="M126.1,7.1h3.9v28.6h-3.9v-2.9c-0.3,1-0.8,1.8-1.6,2.4c-0.7,0.6-1.7,0.9-3,0.9s-2.3-0.5-3.2-1.6
		c-0.9-1-1.3-2.6-1.3-4.8V7.1h3.9v22.2c0,2.2,0.8,3.4,2.5,3.4c0.9,0,1.6-0.3,2.1-1c0.5-0.6,0.7-1.5,0.7-2.5L126.1,7.1L126.1,7.1z"/>
	<path class="st2" d="M139.2,1.7h3.9v7.6c0.2-0.7,0.7-1.4,1.4-1.9s1.4-0.8,2.2-0.8c2.3,0,3.9,1.2,4.5,3.5c0.4,1.5,0.7,3.4,0.7,5.6
		v11c0,3.5-0.5,6-1.4,7.4c-0.8,1.1-1.9,1.7-3.5,1.7c-1.9,0-3.1-0.9-3.9-2.6v2.4h-3.9V1.7z M148,15.3c0-1.9-0.1-3.1-0.3-3.6
		c-0.3-1.3-1.2-1.7-1.8-1.8s-0.9,0-1.3,0.2c-1,0.5-1.5,2.2-1.5,5.1v11.6c0,2.1,0.2,3.6,0.5,4.4c0.3,0.9,1,1.3,2,1.3s1.6-0.4,1.9-1.3
		c0.3-0.9,0.5-2.4,0.5-4.6L148,15.3L148,15.3z"/>
	<path class="st2" d="M160.6,0.8h3.9v3.6h-3.9V0.8z M160.6,7.1h3.9v28.6h-3.9V7.1z"/>
	<path class="st2" d="M171.7,7.1h3.4l3,9.1l2.7-9.1h3.5l-4.6,14l4.8,14.6h-3.6l-3.1-9.7l-2.9,9.7h-3.5l4.8-14.7L171.7,7.1z"/>
</g>
</svg>
